<svg width="137" height="1024" viewBox="0 0 137 1024" fill="none" xmlns="http://www.w3.org/2000/svg">
<path fill-rule="evenodd" clip-rule="evenodd" d="M70 55L70 55.1269H52.1782L61.9802 65.3809L58.4158 69L58.2199 68.7979L52.1782 74.9001H70V75H70.127V93.1188L80.381 83.0197L84 86.5841L83.7979 86.78L90.2 93.1188V80H90V74.7904H107.822L97.7228 64.6774L101.287 61L101.522 61.2383L107.822 55H95V55H89.7903V37.1782L79.6774 46.9803L76 43.4159L76.2347 43.1884L70 37.1782L70 50L70 55ZM65 50H40L54.8374 65.3081L40 80H65V105L80.1596 90.3065L95 105V80H120L105.041 64.8119L120 50H95V25L79.6919 39.8374L65 25V50Z" fill="#EBEBEB"/>
<path fill-rule="evenodd" clip-rule="evenodd" d="M30 -4V-3.87305H12.1782L21.9802 6.38086L18.4158 10L18.22 9.79797L12.1782 15.9H30V16H30.127V34.1188L40.381 24.0198L44 27.5841L43.7979 27.78L50.2 34.1188V21H50V15.7904H67.8218L57.7228 5.67737L61.2871 2L61.5218 2.23828L67.8218 -4H55H50H49.7903V-21.8218L39.6774 -12.0198L36 -15.5841L36.2347 -15.8115L30 -21.8218V-9V-4ZM25 -9H0L14.8374 6.30811L0 21H25V46L40.1595 31.3065L55 46V21H80L65.0414 5.81189L80 -9H55V-34L39.6919 -19.1626L25 -34V-9Z" fill="#EBEBEB"/>
<path fill-rule="evenodd" clip-rule="evenodd" d="M112 -4L112 -3.87306H94.1782L103.98 6.38091L100.416 10L100.22 9.79789L94.1782 15.9001H112V16H112.127V34.1188L122.381 24.0197L126 27.5841L125.798 27.78L132.2 34.1188V21H132V15.7904H149.822L139.723 5.67738L143.287 2L143.522 2.23826L149.822 -4.00003H137V-4H131.79V-21.8218L121.677 -12.0197L118 -15.5841L118.235 -15.8116L112 -21.8218L112 -9L112 -4ZM107 -9H82L96.8374 6.30806L82 21H107V46L122.16 31.3065L137 46V21H162L147.041 5.81191L162 -9H137V-34L121.692 -19.1626L107 -34V-9Z" fill="#EBEBEB"/>
<path fill-rule="evenodd" clip-rule="evenodd" d="M70 174L70 174.127H52.1782L61.9802 184.381L58.4158 188L58.2199 187.798L52.1782 193.9H70V194H70.127V212.119L80.381 202.02L84 205.584L83.7979 205.78L90.2 212.119V199H90V193.79H107.822L97.7228 183.677L101.287 180L101.522 180.238L107.822 174H95V174H89.7903V156.178L79.6774 165.98L76 162.416L76.2347 162.188L70 156.178L70 169L70 174ZM65 169H40L54.8374 184.308L40 199H65V224L80.1596 209.307L95 224V199H120L105.041 183.812L120 169H95V144L79.6919 158.837L65 144V169Z" fill="#EBEBEB"/>
<path fill-rule="evenodd" clip-rule="evenodd" d="M30 115L30 115.127H12.1782L21.9802 125.381L18.4158 129L18.2199 128.798L12.1782 134.9H30V135H30.127V153.119L40.381 143.02L44 146.584L43.7979 146.78L50.2 153.119V140H50V134.79H67.8218L57.7228 124.677L61.2871 121L61.5218 121.238L67.8218 115H55V115H49.7903V97.1782L39.6774 106.98L36 103.416L36.2347 103.188L30 97.1782L30 110L30 115ZM25 110H0L14.8374 125.308L0 140H25V165L40.1596 150.307L55 165V140H80L65.0414 124.812L80 110H55V85L39.6919 99.8374L25 85V110Z" fill="#EBEBEB"/>
<path fill-rule="evenodd" clip-rule="evenodd" d="M112 115L112 115.127H94.1782L103.98 125.381L100.416 129L100.22 128.798L94.1782 134.9H112V135H112.127V153.119L122.381 143.02L126 146.584L125.798 146.78L132.2 153.119V140H132V134.79H149.822L139.723 124.677L143.287 121L143.522 121.238L149.822 115H137V115H131.79V97.1782L121.677 106.98L118 103.416L118.235 103.188L112 97.1782L112 110L112 115ZM107 110H82L96.8374 125.308L82 140H107V165L122.16 150.307L137 165V140H162L147.041 124.812L162 110H137V85L121.692 99.8374L107 85V110Z" fill="#EBEBEB"/>
<path fill-rule="evenodd" clip-rule="evenodd" d="M70 293L70 293.127H52.1782L61.9802 303.381L58.4158 307L58.2199 306.798L52.1782 312.9H70V313H70.127V331.119L80.381 321.02L84 324.584L83.7979 324.78L90.2 331.119V318H90V312.79H107.822L97.7228 302.677L101.287 299L101.522 299.238L107.822 293H95V293H89.7903V275.178L79.6774 284.98L76 281.416L76.2347 281.188L70 275.178L70 288L70 293ZM65 288H40L54.8374 303.308L40 318H65V343L80.1596 328.307L95 343V318H120L105.041 302.812L120 288H95V263L79.6919 277.837L65 263V288Z" fill="#EBEBEB"/>
<path fill-rule="evenodd" clip-rule="evenodd" d="M30 234L30 234.127H12.1782L21.9802 244.381L18.4158 248L18.2199 247.798L12.1782 253.9H30V254H30.127V272.119L40.381 262.02L44 265.584L43.7979 265.78L50.2 272.119V259H50V253.79H67.8218L57.7228 243.677L61.2871 240L61.5218 240.238L67.8218 234H55V234H49.7903V216.178L39.6774 225.98L36 222.416L36.2347 222.188L30 216.178L30 229L30 234ZM25 229H0L14.8374 244.308L0 259H25V284L40.1596 269.307L55 284V259H80L65.0414 243.812L80 229H55V204L39.6919 218.837L25 204V229Z" fill="#EBEBEB"/>
<path fill-rule="evenodd" clip-rule="evenodd" d="M112 234L112 234.127H94.1782L103.98 244.381L100.416 248L100.22 247.798L94.1782 253.9H112V254H112.127V272.119L122.381 262.02L126 265.584L125.798 265.78L132.2 272.119V259H132V253.79H149.822L139.723 243.677L143.287 240L143.522 240.238L149.822 234H137V234H131.79V216.178L121.677 225.98L118 222.416L118.235 222.188L112 216.178L112 229L112 234ZM107 229H82L96.8374 244.308L82 259H107V284L122.16 269.307L137 284V259H162L147.041 243.812L162 229H137V204L121.692 218.837L107 204V229Z" fill="#EBEBEB"/>
<path fill-rule="evenodd" clip-rule="evenodd" d="M70 412L70 412.127H52.1782L61.9802 422.381L58.4158 426L58.2199 425.798L52.1782 431.9H70V432H70.127V450.119L80.381 440.02L84 443.584L83.7979 443.78L90.2 450.119V437H90V431.79H107.822L97.7228 421.677L101.287 418L101.522 418.238L107.822 412H95V412H89.7903V394.178L79.6774 403.98L76 400.416L76.2347 400.188L70 394.178L70 407L70 412ZM65 407H40L54.8374 422.308L40 437H65V462L80.1596 447.307L95 462V437H120L105.041 421.812L120 407H95V382L79.6919 396.837L65 382V407Z" fill="#EBEBEB"/>
<path fill-rule="evenodd" clip-rule="evenodd" d="M30 353L30 353.127H12.1782L21.9802 363.381L18.4158 367L18.2199 366.798L12.1782 372.9H30V373H30.127V391.119L40.381 381.02L44 384.584L43.7979 384.78L50.2 391.119V378H50V372.79H67.8218L57.7228 362.677L61.2871 359L61.5218 359.238L67.8218 353H55V353H49.7903V335.178L39.6774 344.98L36 341.416L36.2347 341.188L30 335.178L30 348L30 353ZM25 348H0L14.8374 363.308L0 378H25V403L40.1596 388.307L55 403V378H80L65.0414 362.812L80 348H55V323L39.6919 337.837L25 323V348Z" fill="#EBEBEB"/>
<path fill-rule="evenodd" clip-rule="evenodd" d="M112 353L112 353.127H94.1782L103.98 363.381L100.416 367L100.22 366.798L94.1782 372.9H112V373H112.127V391.119L122.381 381.02L126 384.584L125.798 384.78L132.2 391.119V378H132V372.79H149.822L139.723 362.677L143.287 359L143.522 359.238L149.822 353H137V353H131.79V335.178L121.677 344.98L118 341.416L118.235 341.188L112 335.178L112 348L112 353ZM107 348H82L96.8374 363.308L82 378H107V403L122.16 388.307L137 403V378H162L147.041 362.812L162 348H137V323L121.692 337.837L107 323V348Z" fill="#EBEBEB"/>
<path fill-rule="evenodd" clip-rule="evenodd" d="M70 531L70 531.127H52.1782L61.9802 541.381L58.4158 545L58.2199 544.798L52.1782 550.9H70V551H70.127V569.119L80.381 559.02L84 562.584L83.7979 562.78L90.2 569.119V556H90V550.79H107.822L97.7228 540.677L101.287 537L101.522 537.238L107.822 531H95V531H89.7903V513.178L79.6774 522.98L76 519.416L76.2347 519.188L70 513.178L70 526L70 531ZM65 526H40L54.8374 541.308L40 556H65V581L80.1596 566.307L95 581V556H120L105.041 540.812L120 526H95V501L79.6919 515.837L65 501V526Z" fill="#EBEBEB"/>
<path fill-rule="evenodd" clip-rule="evenodd" d="M30 472L30 472.127H12.1782L21.9802 482.381L18.4158 486L18.2199 485.798L12.1782 491.9H30V492H30.127V510.119L40.381 500.02L44 503.584L43.7979 503.78L50.2 510.119V497H50V491.79H67.8218L57.7228 481.677L61.2871 478L61.5218 478.238L67.8218 472H55V472H49.7903V454.178L39.6774 463.98L36 460.416L36.2347 460.188L30 454.178L30 467L30 472ZM25 467H0L14.8374 482.308L0 497H25V522L40.1596 507.307L55 522V497H80L65.0414 481.812L80 467H55V442L39.6919 456.837L25 442V467Z" fill="#EBEBEB"/>
<path fill-rule="evenodd" clip-rule="evenodd" d="M112 472L112 472.127H94.1782L103.98 482.381L100.416 486L100.22 485.798L94.1782 491.9H112V492H112.127V510.119L122.381 500.02L126 503.584L125.798 503.78L132.2 510.119V497H132V491.79H149.822L139.723 481.677L143.287 478L143.522 478.238L149.822 472H137V472H131.79V454.178L121.677 463.98L118 460.416L118.235 460.188L112 454.178L112 467L112 472ZM107 467H82L96.8374 482.308L82 497H107V522L122.16 507.307L137 522V497H162L147.041 481.812L162 467H137V442L121.692 456.837L107 442V467Z" fill="#EBEBEB"/>
<path fill-rule="evenodd" clip-rule="evenodd" d="M70 650L70 650.127H52.1782L61.9802 660.381L58.4158 664L58.2199 663.798L52.1782 669.9H70V670H70.127V688.119L80.381 678.02L84 681.584L83.7979 681.78L90.2 688.119V675H90V669.79H107.822L97.7228 659.677L101.287 656L101.522 656.238L107.822 650H95V650H89.7903V632.178L79.6774 641.98L76 638.416L76.2347 638.188L70 632.178L70 645L70 650ZM65 645H40L54.8374 660.308L40 675H65V700L80.1596 685.307L95 700V675H120L105.041 659.812L120 645H95V620L79.6919 634.837L65 620V645Z" fill="#EBEBEB"/>
<path fill-rule="evenodd" clip-rule="evenodd" d="M30 591L30 591.127H12.1782L21.9802 601.381L18.4158 605L18.2199 604.798L12.1782 610.9H30V611H30.127V629.119L40.381 619.02L44 622.584L43.7979 622.78L50.2 629.119V616H50V610.79H67.8218L57.7228 600.677L61.2871 597L61.5218 597.238L67.8218 591H55V591H49.7903V573.178L39.6774 582.98L36 579.416L36.2347 579.188L30 573.178L30 586L30 591ZM25 586H0L14.8374 601.308L0 616H25V641L40.1596 626.307L55 641V616H80L65.0414 600.812L80 586H55V561L39.6919 575.837L25 561V586Z" fill="#EBEBEB"/>
<path fill-rule="evenodd" clip-rule="evenodd" d="M112 591L112 591.127H94.1782L103.98 601.381L100.416 605L100.22 604.798L94.1782 610.9H112V611H112.127V629.119L122.381 619.02L126 622.584L125.798 622.78L132.2 629.119V616H132V610.79H149.822L139.723 600.677L143.287 597L143.522 597.238L149.822 591H137V591H131.79V573.178L121.677 582.98L118 579.416L118.235 579.188L112 573.178L112 586L112 591ZM107 586H82L96.8374 601.308L82 616H107V641L122.16 626.307L137 641V616H162L147.041 600.812L162 586H137V561L121.692 575.837L107 561V586Z" fill="#EBEBEB"/>
<path fill-rule="evenodd" clip-rule="evenodd" d="M70 769L70 769.127H52.1782L61.9802 779.381L58.4158 783L58.2199 782.798L52.1782 788.9H70V789H70.127V807.119L80.381 797.02L84 800.584L83.7979 800.78L90.2 807.119V794H90V788.79H107.822L97.7228 778.677L101.287 775L101.522 775.238L107.822 769H95V769H89.7903V751.178L79.6774 760.98L76 757.416L76.2347 757.188L70 751.178L70 764L70 769ZM65 764H40L54.8374 779.308L40 794H65V819L80.1596 804.307L95 819V794H120L105.041 778.812L120 764H95V739L79.6919 753.837L65 739V764Z" fill="#EBEBEB"/>
<path fill-rule="evenodd" clip-rule="evenodd" d="M30 710L30 710.127H12.1782L21.9802 720.381L18.4158 724L18.2199 723.798L12.1782 729.9H30V730H30.127V748.119L40.381 738.02L44 741.584L43.7979 741.78L50.2 748.119V735H50V729.79H67.8218L57.7228 719.677L61.2871 716L61.5218 716.238L67.8218 710H55V710H49.7903V692.178L39.6774 701.98L36 698.416L36.2347 698.188L30 692.178L30 705L30 710ZM25 705H0L14.8374 720.308L0 735H25V760L40.1596 745.307L55 760V735H80L65.0414 719.812L80 705H55V680L39.6919 694.837L25 680V705Z" fill="#EBEBEB"/>
<path fill-rule="evenodd" clip-rule="evenodd" d="M112 710L112 710.127H94.1782L103.98 720.381L100.416 724L100.22 723.798L94.1782 729.9H112V730H112.127V748.119L122.381 738.02L126 741.584L125.798 741.78L132.2 748.119V735H132V729.79H149.822L139.723 719.677L143.287 716L143.522 716.238L149.822 710H137V710H131.79V692.178L121.677 701.98L118 698.416L118.235 698.188L112 692.178L112 705L112 710ZM107 705H82L96.8374 720.308L82 735H107V760L122.16 745.307L137 760V735H162L147.041 719.812L162 705H137V680L121.692 694.837L107 680V705Z" fill="#EBEBEB"/>
<path fill-rule="evenodd" clip-rule="evenodd" d="M70 888L70 888.127H52.1782L61.9802 898.381L58.4158 902L58.2199 901.798L52.1782 907.9H70V908H70.127V926.119L80.381 916.02L84 919.584L83.7979 919.78L90.2 926.119V913H90V907.79H107.822L97.7228 897.677L101.287 894L101.522 894.238L107.822 888H95V888H89.7903V870.178L79.6774 879.98L76 876.416L76.2347 876.188L70 870.178L70 883L70 888ZM65 883H40L54.8374 898.308L40 913H65V938L80.1596 923.307L95 938V913H120L105.041 897.812L120 883H95V858L79.6919 872.837L65 858V883Z" fill="#EBEBEB"/>
<path fill-rule="evenodd" clip-rule="evenodd" d="M30 829L30 829.127H12.1782L21.9802 839.381L18.4158 843L18.2199 842.798L12.1782 848.9H30V849H30.127V867.119L40.381 857.02L44 860.584L43.7979 860.78L50.2 867.119V854H50V848.79H67.8218L57.7228 838.677L61.2871 835L61.5218 835.238L67.8218 829H55V829H49.7903V811.178L39.6774 820.98L36 817.416L36.2347 817.188L30 811.178L30 824L30 829ZM25 824H0L14.8374 839.308L0 854H25V879L40.1596 864.307L55 879V854H80L65.0414 838.812L80 824H55V799L39.6919 813.837L25 799V824Z" fill="#EBEBEB"/>
<path fill-rule="evenodd" clip-rule="evenodd" d="M112 829L112 829.127H94.1782L103.98 839.381L100.416 843L100.22 842.798L94.1782 848.9H112V849H112.127V867.119L122.381 857.02L126 860.584L125.798 860.78L132.2 867.119V854H132V848.79H149.822L139.723 838.677L143.287 835L143.522 835.238L149.822 829H137V829H131.79V811.178L121.677 820.98L118 817.416L118.235 817.188L112 811.178L112 824L112 829ZM107 824H82L96.8374 839.308L82 854H107V879L122.16 864.307L137 879V854H162L147.041 838.812L162 824H137V799L121.692 813.837L107 799V824Z" fill="#EBEBEB"/>
<path fill-rule="evenodd" clip-rule="evenodd" d="M70 1007L70 1007.13H52.1782L61.9802 1017.38L58.4158 1021L58.2199 1020.8L52.1782 1026.9H70V1027H70.127V1045.12L80.381 1035.02L84 1038.58L83.7979 1038.78L90.2 1045.12V1032H90V1026.79H107.822L97.7228 1016.68L101.287 1013L101.522 1013.24L107.822 1007H95V1007H89.7903V989.178L79.6774 998.98L76 995.416L76.2347 995.188L70 989.178L70 1002L70 1007ZM65 1002H40L54.8374 1017.31L40 1032H65V1057L80.1596 1042.31L95 1057V1032H120L105.041 1016.81L120 1002H95V977L79.6919 991.837L65 977V1002Z" fill="#EBEBEB"/>
<path fill-rule="evenodd" clip-rule="evenodd" d="M30 948L30 948.127H12.1782L21.9802 958.381L18.4158 962L18.2199 961.798L12.1782 967.9H30V968H30.127V986.119L40.381 976.02L44 979.584L43.7979 979.78L50.2 986.119V973H50V967.79H67.8218L57.7228 957.677L61.2871 954L61.5218 954.238L67.8218 948H55V948H49.7903V930.178L39.6774 939.98L36 936.416L36.2347 936.188L30 930.178L30 943L30 948ZM25 943H0L14.8374 958.308L0 973H25V998L40.1596 983.307L55 998V973H80L65.0414 957.812L80 943H55V918L39.6919 932.837L25 918V943Z" fill="#EBEBEB"/>
<path fill-rule="evenodd" clip-rule="evenodd" d="M112 948L112 948.127H94.1782L103.98 958.381L100.416 962L100.22 961.798L94.1782 967.9H112V968H112.127V986.119L122.381 976.02L126 979.584L125.798 979.78L132.2 986.119V973H132V967.79H149.822L139.723 957.677L143.287 954L143.522 954.238L149.822 948H137V948H131.79V930.178L121.677 939.98L118 936.416L118.235 936.188L112 930.178L112 943L112 948ZM107 943H82L96.8374 958.308L82 973H107V998L122.16 983.307L137 998V973H162L147.041 957.812L162 943H137V918L121.692 932.837L107 918V943Z" fill="#EBEBEB"/>
</svg>
