<svg width="116" height="78" viewBox="0 0 116 78" fill="none" xmlns="http://www.w3.org/2000/svg">
<g clip-path="url(#clip0)">
<path d="M56.786 54.358V55.315H53.914V57.23H56.786V58.187H53.914V60.102H52.957V54.358H56.786Z" fill="white"/>
<path d="M59.681 58.1869H61.362L60.521 56.5059L59.681 58.1869ZM61.853 59.1439H59.214L58.724 60.1009H57.65L60.522 54.3569L63.394 60.1009H62.343L61.853 59.1439Z" fill="white"/>
<path d="M67.088 54.3579C67.4743 54.3517 67.8572 54.4312 68.209 54.591C68.5566 54.729 68.8682 54.9444 69.12 55.2209L68.443 55.8979C68.268 55.7165 68.0574 55.5731 67.8244 55.4768C67.5914 55.3804 67.3411 55.3332 67.089 55.3379C66.8334 55.337 66.5799 55.3845 66.342 55.4779C66.1093 55.5681 65.9013 55.712 65.735 55.8979C65.5689 56.0809 65.4277 56.285 65.315 56.505C65.2142 56.7415 65.1589 56.9949 65.152 57.2519C65.1475 57.5102 65.2033 57.766 65.315 57.9989C65.4051 58.2316 65.549 58.4396 65.735 58.6059C65.9138 58.7772 66.1187 58.919 66.342 59.0259C66.5799 59.1194 66.8334 59.1669 67.089 59.1659C67.3408 59.1686 67.5905 59.1203 67.8231 59.0241C68.0558 58.9279 68.2666 58.7856 68.443 58.6059L69.12 59.283C68.8514 59.5396 68.544 59.7522 68.209 59.9129C67.8537 60.0617 67.4731 60.1408 67.088 60.1459C66.7017 60.1522 66.3188 60.0727 65.967 59.9129C65.6298 59.7661 65.3214 59.5606 65.056 59.3059C64.7942 59.0416 64.581 58.7332 64.426 58.395C64.2663 58.0432 64.1867 57.6603 64.193 57.2739C64.1864 56.8944 64.266 56.5182 64.426 56.1739C64.5641 55.8264 64.7795 55.5148 65.056 55.2629C65.3204 55.0011 65.6287 54.7879 65.967 54.6329C66.3073 54.437 66.6955 54.34 67.088 54.3529" fill="white"/>
<path d="M71.426 54.358H70.469V60.102H71.426V54.358Z" fill="white"/>
<path d="M73.037 54.358H73.994V59.145H76.866V60.102H73.037V54.358Z" fill="white"/>
<path d="M79.108 54.358H78.151V60.102H79.108V54.358Z" fill="white"/>
<path d="M80.369 54.358H85.179V55.315H83.269V60.102H82.312V55.315H80.369V54.358Z" fill="white"/>
<path d="M90.946 54.358H92.184L89.802 57.37V60.102H88.863V57.417L86.463 54.358H87.677L89.311 56.458L90.946 54.358Z" fill="white"/>
<path d="M53.914 65.286V68.742H52.957V62.974L55.829 65.874L58.729 62.974V68.741H57.748V65.285L55.833 67.223L53.914 65.286Z" fill="white"/>
<path d="M62.0391 66.826H63.7201L62.8791 65.145L62.0391 66.826ZM64.2111 67.783H61.5731L61.0831 68.74H60.0081L62.8801 62.996L65.752 68.74H64.6781L64.2111 67.783Z" fill="white"/>
<path d="M67.036 62.974L70.865 66.43V62.974H71.822V68.718V68.741L67.969 65.285V68.717H67.036V62.974Z" fill="white"/>
<path d="M75.115 66.826H76.796L75.955 65.145L75.115 66.826ZM77.31 67.783H74.672L74.182 68.74H73.084L75.956 62.996L78.828 68.74H77.754L77.31 67.783Z" fill="white"/>
<path d="M82.522 62.974C82.9083 62.9677 83.2912 63.0473 83.643 63.207C83.9906 63.345 84.3021 63.5605 84.554 63.837L83.854 64.514C83.5861 64.2462 83.2449 64.0639 82.8735 63.99C82.5021 63.9161 82.1171 63.954 81.7672 64.099C81.4173 64.2439 81.1182 64.4893 80.9078 64.8042C80.6973 65.1191 80.585 65.4893 80.585 65.868C80.5847 66.1195 80.6341 66.3687 80.7302 66.6011C80.8264 66.8336 80.9674 67.0448 81.1453 67.2227C81.3232 67.4006 81.5344 67.5416 81.7668 67.6378C81.9993 67.7339 82.2484 67.7833 82.5 67.783C82.7736 67.79 83.0452 67.7343 83.294 67.62C83.5386 67.5054 83.7602 67.3472 83.948 67.153V66.359H82.5V65.374H84.9V67.429C84.7638 67.6241 84.6073 67.8041 84.433 67.966C84.2622 68.126 84.0744 68.2669 83.873 68.386C83.6698 68.5054 83.4491 68.5921 83.219 68.643C82.9836 68.7098 82.7396 68.7411 82.495 68.736C81.7393 68.7192 81.0205 68.4065 80.4931 67.8651C79.9657 67.3238 79.6719 66.597 79.6749 65.8412C79.678 65.0854 79.9775 64.361 80.5092 63.8239C81.0409 63.2867 81.7622 62.9797 82.518 62.969" fill="white"/>
<path d="M90.292 62.974V63.955H87.42V65.374H90.292V66.331H87.42V67.779H90.292V68.736H86.463V62.974H90.292Z" fill="white"/>
<path d="M92.814 65.286V68.742H91.88V62.974L94.752 65.874L97.624 62.974V68.741H96.667V65.285L94.752 67.223L92.814 65.286Z" fill="white"/>
<path d="M103.088 62.974V63.955H100.216V65.374H103.088V66.331H100.216V67.779H103.088V68.736H99.259V62.974H103.088Z" fill="white"/>
<path d="M104.675 62.974L108.504 66.43V62.974H109.461V68.718V68.741L105.632 65.285V68.717H104.675V62.974Z" fill="white"/>
<path d="M110.746 62.974H115.533V63.955H113.618V68.742H112.661V63.955H110.746V62.974Z" fill="white"/>
<path d="M55.829 71.6131C56.2127 71.6105 56.5933 71.6818 56.95 71.8231C57.2976 71.9611 57.6092 72.1765 57.861 72.4531L57.161 73.1301C56.8018 72.7708 56.3146 72.569 55.8065 72.569C55.2985 72.569 54.8113 72.7708 54.452 73.1301C54.0928 73.4893 53.891 73.9765 53.891 74.4846C53.891 74.9926 54.0928 75.4798 54.452 75.839C54.6284 76.0187 54.8393 76.1609 55.0719 76.2571C55.3046 76.3533 55.5543 76.4016 55.806 76.399C56.0797 76.4061 56.3513 76.3503 56.6 76.236C56.8409 76.1271 57.0558 75.9679 57.23 75.769V74.9751H55.782V74.0131H58.182V76.068C58.0459 76.2631 57.8893 76.4431 57.715 76.605C57.5443 76.7651 57.3565 76.906 57.155 77.025C56.9519 77.1445 56.7312 77.2312 56.501 77.282C56.2657 77.3488 56.0216 77.3802 55.777 77.3751C55.2098 77.3741 54.6555 77.2052 54.1841 76.8897C53.7127 76.5742 53.3452 76.1262 53.128 75.6021C52.9108 75.0781 52.8536 74.5015 52.9636 73.945C53.0736 73.3885 53.3458 72.8771 53.746 72.4751C54.0166 72.1988 54.3401 71.98 54.6971 71.8315C55.0541 71.6831 55.4374 71.6081 55.824 71.611" fill="white"/>
<path d="M62.647 72.57H60.732V74.485H62.647C62.8362 74.4847 63.021 74.4283 63.1782 74.3231C63.3353 74.2179 63.4578 74.0685 63.5302 73.8937C63.6026 73.719 63.6217 73.5267 63.585 73.3412C63.5483 73.1556 63.4575 72.985 63.324 72.851C63.2371 72.7595 63.1319 72.6872 63.0153 72.639C62.8987 72.5908 62.7732 72.5676 62.647 72.571V72.57ZM63.464 77.358L62.343 75.443H60.709V77.358H59.775V71.613H62.647C62.8986 71.6128 63.1477 71.6621 63.3802 71.7583C63.6126 71.8544 63.8238 71.9955 64.0017 72.1733C64.1796 72.3512 64.3206 72.5624 64.4168 72.7949C64.5129 73.0273 64.5623 73.2765 64.562 73.528C64.5679 73.915 64.4448 74.2928 64.212 74.602C64.0192 74.9188 63.7217 75.1583 63.371 75.279L64.562 77.334H63.462L63.464 77.358Z" fill="white"/>
<path d="M68.6939 72.57C68.3152 72.5701 67.945 72.6824 67.6301 72.8928C67.3152 73.1032 67.0698 73.4023 66.9249 73.7522C66.78 74.1021 66.7421 74.4871 66.8159 74.8586C66.8898 75.23 67.0722 75.5712 67.3399 75.839C67.5163 76.0187 67.7271 76.1609 67.9598 76.2572C68.1925 76.3534 68.4422 76.4016 68.6939 76.399C68.946 76.4038 69.1963 76.3565 69.4293 76.2602C69.6623 76.1638 69.8729 76.0205 70.0479 75.839C70.4065 75.4796 70.6079 74.9927 70.6079 74.485C70.6079 73.9773 70.4065 73.4904 70.0479 73.131C69.8729 72.9496 69.6623 72.8062 69.4293 72.7098C69.1963 72.6135 68.946 72.5662 68.6939 72.571V72.57ZM68.6939 71.614C69.0712 71.6138 69.4447 71.6879 69.7933 71.8321C70.1419 71.9763 70.4586 72.1879 70.7253 72.4546C70.9921 72.7214 71.2036 73.0381 71.3478 73.3867C71.4921 73.7352 71.5662 74.1088 71.5659 74.486C71.5741 74.8644 71.5036 75.2402 71.3588 75.5899C71.214 75.9395 70.9982 76.2552 70.7249 76.517C70.3913 76.8522 69.98 77.0998 69.5276 77.2379C69.0753 77.3759 68.5958 77.4002 68.1319 77.3085C67.6679 77.2168 67.2337 77.012 66.8679 76.7122C66.5021 76.4125 66.216 76.027 66.0349 75.5901C65.8538 75.1532 65.7833 74.6783 65.8298 74.2077C65.8763 73.737 66.0382 73.2851 66.3013 72.8921C66.5643 72.499 66.9204 72.177 67.3378 71.9546C67.7551 71.7321 68.221 71.6162 68.6939 71.617V71.614Z" fill="white"/>
<path d="M77.777 74.975C77.778 75.2905 77.7167 75.6031 77.5964 75.8947C77.4762 76.1864 77.2994 76.4514 77.0764 76.6744C76.8533 76.8975 76.5883 77.0743 76.2967 77.1945C76.005 77.3147 75.6924 77.3761 75.377 77.375C75.0614 77.3767 74.7486 77.3157 74.4568 77.1955C74.165 77.0753 73.8999 76.8984 73.677 76.675C73.4518 76.4534 73.2737 76.1886 73.1534 75.8965C73.0331 75.6044 72.9731 75.2909 72.977 74.975V71.613H73.934V74.975C73.9315 75.1616 73.9676 75.3467 74.0398 75.5188C74.1121 75.6908 74.219 75.8462 74.354 75.975C74.4878 76.1109 74.6479 76.2181 74.8244 76.2903C75.0009 76.3625 75.1903 76.3981 75.381 76.395C75.5676 76.3975 75.7527 76.3614 75.9247 76.2892C76.0968 76.2169 76.2521 76.11 76.381 75.975C76.5192 75.8474 76.6299 75.6928 76.7062 75.5209C76.7826 75.3489 76.823 75.1632 76.825 74.975V71.613H77.782L77.777 74.975Z" fill="white"/>
<path d="M80.322 72.57V74.485H82.237C82.4909 74.485 82.7345 74.3842 82.9141 74.2046C83.0936 74.025 83.1945 73.7815 83.1945 73.5275C83.1945 73.2736 83.0936 73.03 82.9141 72.8505C82.7345 72.6709 82.4909 72.57 82.237 72.57H80.322ZM80.322 75.442V77.357H79.365V71.613H82.237C82.4886 71.6128 82.7377 71.6621 82.9702 71.7583C83.2026 71.8544 83.4138 71.9955 83.5917 72.1733C83.7696 72.3512 83.9106 72.5624 84.0068 72.7949C84.1029 73.0273 84.1523 73.2765 84.152 73.528C84.1546 73.7798 84.1064 74.0295 84.0101 74.2621C83.9139 74.4948 83.7717 74.7057 83.592 74.882C83.417 75.0635 83.2064 75.2068 82.9734 75.3032C82.7404 75.3995 82.4901 75.4468 82.238 75.442H80.322Z" fill="white"/>
<path d="M95.243 24.12H109.043V29.771C107.758 31.225 106.184 32.394 104.42 33.203C102.322 34.1751 100.012 34.6015 97.7049 34.4425C95.3979 34.2835 93.1684 33.5444 91.2233 32.2936C89.2782 31.0429 87.6806 29.3211 86.5787 27.288C85.4767 25.255 84.9062 22.9765 84.92 20.664C84.9146 18.8563 85.2667 17.0653 85.956 15.3941C86.6454 13.723 87.6584 12.2046 88.9368 10.9264C90.2152 9.64822 91.7337 8.63543 93.405 7.94632C95.0762 7.2572 96.8673 6.90536 98.675 6.91103C100.485 6.88169 102.281 7.22514 103.952 7.92001C105.623 8.61488 107.133 9.64629 108.388 10.95L113.288 6.05003C111.397 4.16326 109.162 2.6573 106.703 1.61403C102.92 0.0241666 98.7482 -0.400689 94.7221 0.393836C90.6961 1.18836 86.9986 3.16613 84.103 6.07403C82.1458 7.9604 80.5971 10.2289 79.5531 12.7387C78.5091 15.2485 77.9921 17.9461 78.034 20.664C77.9906 23.3828 78.5072 26.0815 79.5516 28.592C80.596 31.1026 82.146 33.3713 84.105 35.257C85.9907 37.216 88.2595 38.766 90.77 39.8104C93.2806 40.8549 95.9792 41.3715 98.698 41.328C100.447 41.3366 102.19 41.1167 103.882 40.674C105.525 40.2472 107.109 39.6198 108.599 38.806C110.07 37.9861 111.441 36.9989 112.685 35.864C113.931 34.725 115.043 33.4482 116.001 32.058V17.258H102.134L95.243 24.12Z" fill="white"/>
<path d="M6.841 17.255V6.911H27.506V0H0V41.329H6.841V24.237H20.291L27.249 17.256L6.841 17.255Z" fill="white"/>
<path d="M32.152 0V41.329H38.993V16.6L47.936 25.543L52.816 20.663L32.152 0Z" fill="white"/>
<path d="M47.936 25.544L52.816 30.424L52.839 30.401L66.568 16.601V41.329H73.549V0L47.936 25.544Z" fill="white"/>
</g>
<defs>
<clipPath id="clip0">
<rect width="116" height="77.38" fill="white"/>
</clipPath>
</defs>
</svg>
